PathFileType	4	(X/Y/Z)	11_2_64_p1_0-320.trc
DataRate	CameraRate	NumFrames	NumMarkers	Units	OrigDataRate	OrigDataStartFrame	OrigNumFrames
58.0	58.0	5	27	m	58.0	240	321
Frame#	Time	RHip			RKnee			RAnkle			RBigToe			RSmallToe			RHeel			LHip			LKnee			LAnkle			LBigToe			LSmallToe			LHeel			Neck			Head			Nose			RShoulder			RElbow			RWrist			RThumb			RIndex			RPinky			LShoulder			LElbow			LWrist			LThumb			LIndex			LPinky			
		X1	Y1	Z1	X2	Y2	Z2	X3	Y3	Z3	X4	Y4	Z4	X5	Y5	Z5	X6	Y6	Z6	X7	Y7	Z7	X8	Y8	Z8	X9	Y9	Z9	X10	Y10	Z10	X11	Y11	Z11	X12	Y12	Z12	X13	Y13	Z13	X14	Y14	Z14	X15	Y15	Z15	X16	Y16	Z16	X17	Y17	Z17	X18	Y18	Z18	X19	Y19	Z19	X20	Y20	Z20	X21	Y21	Z21	X22	Y22	Z22	X23	Y23	Z23	X24	Y24	Z24	X25	Y25	Z25	X26	Y26	Z26	X27	Y27	Z27	
240	4.137931034482759	0.35633575731811223	0.6208788818621949	0.5641754761680365	0.34745440235674024	0.6617023567729652	1.0144586155573132	0.34065536916320666	0.7856898084564159	1.475329031108892	0.3501861543492238	0.5405627729246123	1.45665965985919	0.3996619594914511	0.5880368752901498	1.462811729649952	0.32244679818757765	0.8345346370463407	1.5243353577620846	0.1615852440900491	0.6086234178068182	0.581798602800822	0.16877358791410257	0.6569276968491025	1.0288454841429941	0.18335262829950663	0.7408069527744061	1.455582282875208	0.19528308235390884	0.5606092689374891	1.4705834073487711	0.13860131305341725	0.5831929113992146	1.455857132708107	0.198171563332927	0.7939724048235113	1.5069853745552835	0.21929264891065342	0.5855923837654967	0.07374478901734238	0.2150722914437029	0.5998652309116741	-0.14834337193038274	0.2535089181641133	0.5166420513278379	-0.054072871285366704	0.3600892888852924	0.5772578881898501	0.13017328207206466	0.48270626135734196	0.3615152545542944	0.056979983820133445	0.42385405325817466	0.3447494774434845	-0.11324207461977304	0.37189785985125684	0.3019249386225928	-0.20386254272266666	0.3800630023124542	0.27921527057130596	-0.22123862385914853	0.4353324895621704	0.24436448091540294	-0.20217292136727374	0.09352676396362763	0.5937747314658626	0.17021531159326944	0.02674689963296697	0.5746927849211345	0.3935884872318339	0.11453345595766758	0.4357747961623887	0.5177295914759352	0.18084281273644923	0.35175004316888075	0.5714084301758373	0.1691722121208762	0.3493533253121718	0.5751822445548808	0.1255062911263035	0.33882035216520573	0.5992113298008754
241	4.155172413793103	0.3563041421107925	0.6207447823911277	0.56419646489948	0.34828361120984924	0.6628746569483821	1.0191410421899818	0.34057273780295516	0.7858186856841084	1.4754684349557008	0.35029115985304665	0.5402850299256035	1.4564847521273163	0.3997656559095106	0.5872389691132897	1.4624965343960796	0.32237952198999953	0.8345503356163123	1.5244371088884927	0.16148755133944834	0.6086982423631725	0.5817139235256731	0.1694202443600074	0.6565995059745466	1.0243305257525306	0.1827978007690098	0.7421672814395597	1.451758000187997	0.19532652963168343	0.5603674539999055	1.4704396170875373	0.13862962567891812	0.5830659131239131	1.4557421525114853	0.19814237829354345	0.7935829471695414	1.506653812577461	0.21932495511791278	0.585654456285008	0.073743182855287	0.2149947495975126	0.6003600834126741	-0.14834099839283826	0.25389585624641153	0.5179427560478258	-0.05349043797085755	0.36433947465174954	0.578631745751972	0.13003568475422123	0.4827374399727605	0.3617254810951135	0.056997782146470784	0.4240406858423704	0.34469409122083355	-0.1131728435048024	0.3760467780228391	0.2910358497998562	-0.2006082394003271	0.3801135528049228	0.27907995574704325	-0.22079414636350717	0.43559508057975865	0.24484760017522683	-0.20229231073051307	0.0991379741464422	0.5805085523681662	0.1685269832561741	0.02700798522423153	0.5759595253090604	0.39749898858079946	0.11453020156077207	0.4356942834242851	0.5177003581009738	0.18086172716196328	0.35170913358760286	0.5713541285606568	0.16919855253082286	0.34931130793273857	0.5751784675639209	0.12552431569529215	0.3386393288548393	0.5990914002185833
242	4.172413793103448	0.3592464988346344	0.6334590684852687	0.5669132946603312	0.3483227004808594	0.6629878448041496	1.0193588470084014	0.34057977647427035	0.785915030062397	1.475502048278223	0.3496278805984344	0.5417229865629163	1.4527990643618367	0.3995805739607802	0.5866518573994937	1.462198105130162	0.32241942204514384	0.8348004892079801	1.5245049506002426	0.16163665138713246	0.6086446326876394	0.5818218231004935	0.16860811847924898	0.6573218613958599	1.0289659756037102	0.18275158685552972	0.741897371596048	1.451680213522555	0.1952919583890541	0.5602845456326258	1.4703253828953218	0.13866698185321877	0.5830208998770009	1.4555979019641099	0.1981179622517274	0.7932093808881698	1.506442755123293	0.21970925602781102	0.5868959478011384	0.07768406347154205	0.21514669671969378	0.6010068105531947	-0.1443688051184298	0.25391640031769286	0.5180546512895329	-0.0495018989679701	0.3601649991432935	0.5774650999136699	0.13030417810853057	0.4827700653970512	0.3618794805032311	0.05699463892071109	0.42407381049519105	0.3448832411813871	-0.1131837531805714	0.376053945230434	0.2914280156432496	-0.19798026841623642	0.38008998522672227	0.2789324320101455	-0.2207578936364074	0.43887066504791067	0.2340904878312369	-0.2056356777651651	0.0991217010756446	0.5804953727590592	0.16850857894641916	0.027406729251540352	0.5756916774408616	0.39368311246376775	0.11457849097093359	0.43563366712306417	0.5176998841698939	0.18081967794555415	0.3516801502108161	0.5712917163210052	0.16915555504387708	0.34932991279865927	0.5751148051663998	0.12897335612773628	0.34028228307994185	0.5992642797571951
243	4.189655172413793	0.3589516472731787	0.634250056253828	0.5633647890235964	0.34812309975743705	0.6611468326355819	1.0099447682434253	0.340547756786837	0.7859937468473347	1.4755749703114485	0.34960618085927525	0.5417562428698084	1.4527940758291484	0.3995513314767525	0.587057858659459	1.4624057449216437	0.3223994764482199	0.834872459957791	1.5245925555525184	0.16758227146716914	0.5952685313141344	0.5781782287223511	0.16851457245658258	0.6573380017909511	1.0288082421821703	0.18335697015391572	0.7405574164905259	1.4554600558181592	0.20118580431642274	0.5458928831334761	1.4618572253321342	0.13874415382592992	0.5827859190304324	1.455297751967608	0.19814118186627364	0.7937043222040144	1.5068588135010332	0.21972578243505286	0.5869682990298212	0.077932269576443	0.21539847243218813	0.6017799760686886	-0.13717423435453724	0.25395040731797575	0.5181959972453367	-0.04932608463006706	0.36021062256249436	0.5773051118768098	0.13045000595337913	0.48660806077825897	0.3648003713636532	0.05347059408180289	0.4240954498750531	0.34484024820483883	-0.11334443589149963	0.37331975367623077	0.2825709793900031	-0.20065170675790014	0.3801451689414904	0.27885604074202974	-0.22119726364845507	0.43520533289518093	0.24493614999904928	-0.20557842917486552	0.09229137311969675	0.5826364945293229	0.17267268756199627	0.02697935522625022	0.575691844847331	0.3973046015885343	0.11453021674262641	0.4356649246865797	0.5176624411016317	0.18030478178457435	0.35062273918460174	0.5671950518562103	0.1690873336188825	0.3494578983306141	0.5751342968614913	0.1293887478854244	0.3403806948582578	0.5954752566551317
244	4.206896551724138	0.35893152349131874	0.6341525209722485	0.563366421355522	0.3483702355401128	0.6634016567033658	1.0195816416327732	0.3404705120284176	0.7861172095290463	1.4755771492175138	0.3495979742471427	0.5420152799688256	1.4529321425507702	0.3994623903905129	0.587070586252051	1.4624181039148076	0.32237143502541254	0.835003023942662	1.5244723109896412	0.1673200222615204	0.5958918370583989	0.5747439725033546	0.1692954093406353	0.6586333275261178	1.0342702642079646	0.18329995437484042	0.7405015867527556	1.4555118746298206	0.1952898753767568	0.5604706202259585	1.470405512176098	0.13865450331006796	0.583127551835241	1.455752976657378	0.19825905627384866	0.7936943182650297	1.506807823012575	0.2197529964450858	0.587036329809603	0.07793476589517342	0.2155727608040775	0.6031771820597552	-0.13665112393955586	0.2565384347222586	0.5315261212141806	-0.04537728594133263	0.36066613450252183	0.5786907837439536	0.1344093742007253	0.4866167977252581	0.36481266545048585	0.05336119337387153	0.42406288597291386	0.3446264594324769	-0.11342578368783232	0.37304862887976176	0.28249073896987487	-0.20346127948343948	0.3840305920174534	0.26796482383776105	-0.22445305710599922	0.43363777754962457	0.2489672469902638	-0.20544828359583375	0.0979215094685279	0.5694470528414747	0.17111021439032703	0.02697011099971175	0.5759295569447458	0.3975496688750866	0.11454549185864919	0.43568925198004743	0.5175637755106173	0.18043682653195675	0.35019300410694904	0.5670266844426587	0.1742389376789073	0.33774689726891527	0.5715793622862394	0.12897805205938656	0.3405662702648503	0.5992753077913173
